<svg id="Layer_1" enable-background="new 0 0 496 496" height="512" viewBox="0 0 496 496" width="512" xmlns="http://www.w3.org/2000/svg"><path d="m480 209.81v25.19c0 11.05-8.95 20-20 20h-92v25c0 11.05-8.95 20-20 20v29c0 11.05-8.95 20-20 20h-40c-11.05 0-20-8.95-20-20v-29c-11.04 0-20-8.96-20-20 0 11.05-8.95 20-20 20v29c0 11.05-8.95 20-20 20h-40c-11.05 0-20-8.95-20-20v-29c-11.04 0-20-8.96-20-20v-25h-92c-11.05 0-20-8.95-20-20v-25.19c0-7.24 3.91-13.92 10.23-17.46l101.77-56.95v-27.53c0-32.692 26.32-59.87 60.13-59.87 33.07 0 59.87 26.8 59.87 59.87 0-33.06 26.81-59.87 59.87-59.87 33.799 0 60.13 27.188 60.13 59.87v27.53l101.77 56.95c6.32 3.54 10.23 10.22 10.23 17.46z" fill="#6994ff"/><path d="m348 300v29c0 11.046-8.954 20-20 20h-40c-11.046 0-20-8.954-20-20v-29z" fill="#42434d"/><path d="m228 300v29c0 11.046-8.954 20-20 20h-40c-11.046 0-20-8.954-20-20v-29z" fill="#42434d"/><path d="m128 255h-92c-11.046 0-20-8.954-20-20v-25.194c0-7.241 3.914-13.917 10.233-17.453l101.767-56.953z" fill="#f2f2f2"/><path d="m480 209.806v25.194c0 11.046-8.954 20-20 20h-92c0-2.887 0-116.623 0-119.6l101.767 56.953c6.319 3.537 10.233 10.212 10.233 17.453z" fill="#f2f2f2"/><path d="m242.73 83.27c-39.105-17.653-84.73 10.584-84.73 54.6v152.13c0 5.523-4.477 10-10 10-11.04 0-20-8.948-20-20v-172.13c0-32.682 26.331-59.87 60.13-59.87 24.29 0 45.21 14.48 54.6 35.27z" fill="#80aaff"/><path d="m128 107.87c0-32.682 26.331-59.87 60.13-59.87 33.06 0 59.87 26.81 59.87 59.87v68.13h-120c0-22.826 0-45.481 0-68.13z" fill="#fe4f60"/><path d="m195.2 82.515c-21.186 8.739-37.2 29.278-37.2 55.355v38.13h-30v-68.13c0-32.682 26.331-59.87 60.13-59.87 20.669 0 24.989 27.123 7.07 34.515z" fill="#ff6d7a"/><path d="m362.73 83.27c-39.105-17.653-84.73 10.584-84.73 54.6v152.13c0 5.523-4.477 10-10 10-11.04 0-20-8.948-20-20v-172.13c0-32.682 26.331-59.87 60.13-59.87 24.29 0 45.21 14.48 54.6 35.27z" fill="#80aaff"/><path d="m128 135.4v42.63l-74.43 41.66c-6.32 3.53-10.24 10.21-10.24 17.45v10.53c0 13.521-27.33 7.55-27.33-12.67v-25.19c0-7.24 3.91-13.92 10.23-17.46z" fill="#f9f9f9"/><path d="m368 176c-6.893 0-115.147 0-120 0v-68.13c0-32.682 26.331-59.87 60.13-59.87 33.06 0 59.87 26.81 59.87 59.87z" fill="#fe4f60"/><path d="m315.2 82.515c-21.186 8.739-37.2 29.278-37.2 55.355v38.13h-30v-68.13c0-32.682 26.331-59.87 60.13-59.87 20.669 0 24.989 27.123 7.07 34.515z" fill="#ff6d7a"/><path d="m148 300h80v24.75h-80z" fill="#2c2c33"/><path d="m268 300.25h80v24.5h-80z" fill="#2c2c33"/><path d="m388 146.59v108.41h-20v-119.6z" fill="#ededed"/><path d="m181 398v22c0 8.837-7.164 16-16 16s-16-7.163-16-16v-22c0-8.837 7.164-16 16-16s16 7.163 16 16zm35-16c-8.836 0-16 7.163-16 16v50c0 8.837 7.164 16 16 16s16-7.163 16-16v-50c0-8.837-7.164-16-16-16zm114 0c-8.836 0-16 7.163-16 16v22c0 8.837 7.164 16 16 16s16-7.163 16-16v-22c0-8.837-7.164-16-16-16zm-51 0c-8.836 0-16 7.163-16 16v50c0 8.837 7.164 16 16 16s16-7.163 16-16v-50c0-8.837-7.164-16-16-16zm217-183.921v56.921c0 8.837-7.164 16-16 16h-96v29c0 8.837-7.164 16-16 16h-4v33c0 8.837-7.164 16-16 16h-80c-8.836 0-16-7.163-16-16v-33c-2.895 0-5.105 0-8 0v33c0 8.837-7.164 16-16 16h-80c-8.836 0-16-7.163-16-16v-33h-4c-8.836 0-16-7.163-16-16v-29h-96c-8.836 0-16-7.163-16-16v-56.921c0-5.793 3.131-11.133 8.186-13.962l103.814-58.104v-18.142c0-41.175 33.272-75.871 76.129-75.871 24.314 0 45.976 11.509 59.871 29.351 14.103-18.11 35.799-29.351 60.129-29.351 41.835 0 75.871 34.035 75.871 75.871v18.142l103.814 58.104c5.055 2.829 8.186 8.169 8.186 13.962zm-264-6.079h-88v92h88zm120 92v-92h-88v92zm-88-176.129v52.129h88v-21.888c-.338-1.851-.335-3.764 0-5.654v-24.587c0-23.793-19.183-43.871-44.129-43.871-24.19 0-43.871 19.681-43.871 43.871zm-120 0v24.587c.335 1.89.338 3.804 0 5.654v21.888h88v-52.129c0-23.793-19.183-43.871-44.129-43.871-24.19 0-43.871 19.681-43.871 43.871zm-32 131.129v-76.315l-80 44.775v31.54zm100 77h-48v17h48zm120 0h-48v17h48zm132-108.54-80-44.775v76.315h80z"/></svg>